<?xml version="1.0" encoding="utf-8"?><svg width="61" height="61" fill="none" xmlns="http://www.w3.org/2000/svg" viewBox="0 0 61 61"><path d="M30.066 29.384c4.036 0 7.531-1.448 10.388-4.305 2.856-2.856 4.304-6.35 4.304-10.388 0-4.035-1.448-7.53-4.305-10.388C37.597 1.448 34.102 0 30.066 0s-7.531 1.448-10.388 4.304c-2.856 2.856-4.304 6.351-4.304 10.387 0 4.038 1.448 7.533 4.304 10.389 2.858 2.856 6.353 4.304 10.389 4.304zM22.206 6.83c2.191-2.191 4.762-3.256 7.86-3.256 3.097 0 5.668 1.065 7.86 3.256 2.191 2.192 3.257 4.764 3.257 7.86 0 3.098-1.066 5.669-3.257 7.861-2.192 2.192-4.763 3.257-7.86 3.257-3.097 0-5.668-1.066-7.86-3.257-2.192-2.192-3.258-4.763-3.258-7.86 0-3.097 1.066-5.669 3.258-7.86zM55.773 46.906a36.285 36.285 0 00-.494-3.854 30.367 30.367 0 00-.948-3.876 19.14 19.14 0 00-1.594-3.614c-.687-1.21-1.495-2.264-2.401-3.13-.948-.908-2.11-1.637-3.451-2.169-1.338-.53-2.82-.797-4.406-.797-.623 0-1.225.255-2.388 1.012-.715.467-1.553 1.007-2.487 1.604-.8.51-1.882.986-3.219 1.418a12.782 12.782 0 01-3.937.636 12.79 12.79 0 01-3.936-.636c-1.336-.431-2.42-.908-3.217-1.417a342.84 342.84 0 01-2.49-1.605c-1.162-.757-1.764-1.013-2.387-1.013-1.586 0-3.067.269-4.404.799-1.342.53-2.503 1.26-3.452 2.168-.906.867-1.714 1.92-2.401 3.13a19.179 19.179 0 00-1.593 3.615 30.438 30.438 0 00-.948 3.875 36.038 36.038 0 00-.494 3.855 52.203 52.203 0 00-.122 3.603c0 3.184 1.012 5.762 3.008 7.663C9.984 60.049 12.592 61 15.764 61h29.372c3.172 0 5.78-.951 7.752-2.827 1.996-1.9 3.009-4.479 3.009-7.664-.001-1.23-.042-2.441-.124-3.603zm-5.35 8.677c-1.303 1.24-3.032 1.842-5.287 1.842H15.764c-2.255 0-3.985-.602-5.287-1.842-1.278-1.216-1.898-2.876-1.898-5.073 0-1.143.037-2.272.113-3.355.073-1.063.224-2.231.446-3.472.22-1.225.5-2.375.834-3.416.32-.999.756-1.987 1.297-2.94.516-.907 1.11-1.685 1.765-2.313.613-.587 1.385-1.067 2.296-1.427.842-.333 1.788-.516 2.815-.543.125.066.348.193.709.429.735.479 1.582 1.025 2.518 1.623 1.056.673 2.416 1.28 4.04 1.805 1.661.537 3.355.81 5.037.81 1.681 0 3.376-.273 5.036-.81 1.626-.525 2.985-1.132 4.042-1.806.959-.612 1.782-1.143 2.517-1.622a9.66 9.66 0 01.709-.43c1.028.028 1.974.21 2.816.544.91.36 1.682.84 2.295 1.427.656.627 1.25 1.406 1.766 2.314.54.952.977 1.94 1.297 2.938a26.79 26.79 0 01.834 3.417c.222 1.243.373 2.41.446 3.472a48.28 48.28 0 01.115 3.355c0 2.198-.622 3.857-1.899 5.073z" fill="#2499E4"/></svg>