<?xml version="1.0" encoding="utf-8"?><!DOCTYPE svg PUBLIC "-//W3C//DTD SVG 1.1//EN" "http://www.w3.org/Graphics/SVG/1.1/DTD/svg11.dtd"><svg viewBox="0 0 512 512" xmlns="http://www.w3.org/2000/svg" xmlns:xlink="http://www.w3.org/1999/xlink"><style>:root>svg{display:none}:root>svg:target{display:block}</style><svg viewBox="0 0 515.556 515.556" id="checked" xmlns="http://www.w3.org/2000/svg"><path d="M0 274.226l176.549 176.886L515.556 112.44l-48.67-47.997-290.337 290L47.996 225.891z"/></svg><svg viewBox="0 0 24 24" id="discord" xmlns="http://www.w3.org/2000/svg"><path d="M3.58 21.196h14.259l-.681-2.205 1.629 1.398 1.493 1.338L23 24V2.475C22.932 1.137 21.78 0 20.352 0L3.585.003C2.158.003 1 1.142 1 2.48v16.24c0 1.411 1.156 2.476 2.58 2.476zM14.128 5.683l-.033.012.012-.012zM6.497 6.952c1.833-1.334 3.532-1.27 3.532-1.27l.137.135c-2.243.535-3.26 1.537-3.26 1.537s.272-.133.747-.336c3.021-1.188 6.32-1.102 9.374.402 0 0-1.019-.937-3.124-1.537l.186-.183c.291.001 1.831.055 3.479 1.26 0 0 1.844 3.15 1.844 7.02-.061-.074-1.144 1.666-3.931 1.726 0 0-.472-.534-.808-1 1.63-.468 2.24-1.404 2.24-1.404-.535.337-1.023.537-1.419.737-.609.268-1.219.4-1.828.535-2.884.468-4.503-.315-6.033-.936l-.523-.266s.609.936 2.174 1.404a22.262 22.262 0 00-.818 1.002c-2.786-.066-3.802-1.806-3.802-1.806 0-3.876 1.833-7.02 1.833-7.02z"/><path d="M14.308 12.771c.711 0 1.29-.6 1.29-1.34 0-.735-.576-1.335-1.29-1.335v.003c-.708 0-1.288.598-1.29 1.338 0 .734.579 1.334 1.29 1.334zM9.69 12.771c.711 0 1.29-.6 1.29-1.34 0-.735-.575-1.335-1.286-1.335l-.004.003c-.711 0-1.29.598-1.29 1.338 0 .734.579 1.334 1.29 1.334z"/></svg><svg fill="#0286ff" viewBox="0 0 512 512" id="download" xmlns="http://www.w3.org/2000/svg"><path d="M339.093 246.464A21.357 21.357 0 00320 234.667h-42.667V21.333C277.333 9.557 267.797 0 256 0s-21.333 9.557-21.333 21.333v213.333H192a21.355 21.355 0 00-19.093 11.797c-3.584 7.232-2.816 15.872 2.027 22.336l64 85.333c.277.363.704.491 1.003.832 1.408 1.664 3.072 2.944 4.928 4.117.768.469 1.365 1.088 2.197 1.472 2.731 1.28 5.717 2.112 8.939 2.112s6.208-.832 8.96-2.112c.811-.384 1.429-1.003 2.176-1.472 1.856-1.173 3.52-2.453 4.928-4.117.277-.341.725-.469 1.003-.832l64-85.333a21.31 21.31 0 002.025-22.335z"/><path d="M490.667 320c-11.797 0-21.333 9.557-21.333 21.333v64c0 35.285-28.715 64-64 64H106.667c-35.285 0-64-28.715-64-64v-64c0-11.776-9.536-21.333-21.333-21.333C9.536 320 0 329.557 0 341.333v64C0 464.149 47.851 512 106.667 512h298.667C464.149 512 512 464.149 512 405.333v-64c0-11.776-9.536-21.333-21.333-21.333z"/></svg><svg fill="#7abb6d" viewBox="0 0 78.369 78.369" id="icon-check" xmlns="http://www.w3.org/2000/svg"><path d="M78.049 19.015L29.458 67.606a1.094 1.094 0 01-1.548 0L.32 40.015a1.094 1.094 0 010-1.547l6.704-6.704a1.095 1.095 0 011.548 0l20.113 20.112 41.113-41.113a1.095 1.095 0 011.548 0l6.703 6.704a1.094 1.094 0 010 1.548z"/></svg><svg fill="#fff" viewBox="0 0 512 512" id="logout" xmlns="http://www.w3.org/2000/svg"><path d="M255.15 468.625H63.787c-11.737 0-21.262-9.526-21.262-21.262V64.638c0-11.737 9.526-21.262 21.262-21.262H255.15c11.758 0 21.262-9.504 21.262-21.262S266.908.85 255.15.85H63.787C28.619.85 0 29.47 0 64.638v382.724c0 35.168 28.619 63.787 63.787 63.787H255.15c11.758 0 21.262-9.504 21.262-21.262 0-11.758-9.504-21.262-21.262-21.262z"/><path d="M505.664 240.861L376.388 113.286c-8.335-8.25-21.815-8.143-30.065.213s-8.165 21.815.213 30.065l92.385 91.173H191.362c-11.758 0-21.262 9.504-21.262 21.262 0 11.758 9.504 21.263 21.262 21.263h247.559l-92.385 91.173c-8.377 8.25-8.441 21.709-.213 30.065a21.255 21.255 0 0015.139 6.336c5.401 0 10.801-2.041 14.926-6.124l129.276-127.575A21.303 21.303 0 00512 255.998c0-5.696-2.275-11.118-6.336-15.137z"/></svg><svg viewBox="0 0 512.002 512.002" id="next" xmlns="http://www.w3.org/2000/svg"><path d="M388.425 241.951L151.609 5.79c-7.759-7.733-20.321-7.72-28.067.04-7.74 7.759-7.72 20.328.04 28.067l222.72 222.105-222.728 222.104c-7.759 7.74-7.779 20.301-.04 28.061a19.8 19.8 0 0014.057 5.835 19.79 19.79 0 0014.017-5.795l236.817-236.155c3.737-3.718 5.834-8.778 5.834-14.05s-2.103-10.326-5.834-14.051z"/></svg><svg viewBox="0 0 512 512" id="play-button" xmlns="http://www.w3.org/2000/svg"><defs><linearGradient id="ga" x1="0%" y1="0%" x2="100%" y2="0%"><stop offset="0%" stop-color="#03b8ff"/><stop offset="100%" stop-color="#0278ff"/></linearGradient></defs><path fill="url(#ga)" d="M256 0C114.833 0 0 114.844 0 256s114.833 256 256 256 256-114.844 256-256S397.167 0 256 0zm101.771 264.969l-149.333 96a10.62 10.62 0 01-5.771 1.698c-1.75 0-3.521-.438-5.104-1.302A10.653 10.653 0 01192 352V160c0-3.906 2.125-7.49 5.563-9.365 3.375-1.854 7.604-1.74 10.875.396l149.333 96c3.042 1.958 4.896 5.344 4.896 8.969s-1.854 7.01-4.896 8.969z"/></svg><svg viewBox="0 0 512 512" id="trophy" xmlns="http://www.w3.org/2000/svg"><path d="M486.4 25.6h-76.8V0H102.4v25.6H25.6C10.24 25.6 0 35.84 0 51.2v61.44c0 58.88 43.52 107.52 102.4 115.2v2.56c0 74.24 51.2 135.68 120.32 151.04L204.8 435.2h-58.88c-10.24 0-20.48 7.68-23.04 17.92L102.4 512h307.2l-20.48-58.88c-2.56-10.24-12.8-17.92-23.04-17.92H307.2l-17.92-53.76c69.12-15.36 120.32-76.8 120.32-151.04v-2.56c58.88-7.68 102.4-56.32 102.4-115.2V51.2c0-15.36-10.24-25.6-25.6-25.6zm-384 151.04c-28.16-7.68-51.2-33.28-51.2-64V76.8h51.2v99.84zM307.2 256L256 227.84 204.8 256l12.8-51.2-38.4-51.2h53.76L256 102.4l23.04 51.2h53.76l-38.4 51.2 12.8 51.2zm153.6-143.36c0 30.72-23.04 58.88-51.2 64V76.8h51.2v35.84z"/></svg><svg fill="none" viewBox="0 0 61 61" id="user" xmlns="http://www.w3.org/2000/svg"><path d="M30.066 29.384c4.036 0 7.531-1.448 10.388-4.305 2.856-2.856 4.304-6.35 4.304-10.388 0-4.035-1.448-7.53-4.305-10.388C37.597 1.448 34.102 0 30.066 0s-7.531 1.448-10.388 4.304c-2.856 2.856-4.304 6.351-4.304 10.387 0 4.038 1.448 7.533 4.304 10.389 2.858 2.856 6.353 4.304 10.389 4.304zM22.206 6.83c2.191-2.191 4.762-3.256 7.86-3.256 3.097 0 5.668 1.065 7.86 3.256 2.191 2.192 3.257 4.764 3.257 7.86 0 3.098-1.066 5.669-3.257 7.861-2.192 2.192-4.763 3.257-7.86 3.257-3.097 0-5.668-1.066-7.86-3.257-2.192-2.192-3.258-4.763-3.258-7.86 0-3.097 1.066-5.669 3.258-7.86zM55.773 46.906a36.285 36.285 0 00-.494-3.854 30.367 30.367 0 00-.948-3.876 19.14 19.14 0 00-1.594-3.614c-.687-1.21-1.495-2.264-2.401-3.13-.948-.908-2.11-1.637-3.451-2.169-1.338-.53-2.82-.797-4.406-.797-.623 0-1.225.255-2.388 1.012-.715.467-1.553 1.007-2.487 1.604-.8.51-1.882.986-3.219 1.418a12.782 12.782 0 01-3.937.636 12.79 12.79 0 01-3.936-.636c-1.336-.431-2.42-.908-3.217-1.417a342.84 342.84 0 01-2.49-1.605c-1.162-.757-1.764-1.013-2.387-1.013-1.586 0-3.067.269-4.404.799-1.342.53-2.503 1.26-3.452 2.168-.906.867-1.714 1.92-2.401 3.13a19.179 19.179 0 00-1.593 3.615 30.438 30.438 0 00-.948 3.875 36.038 36.038 0 00-.494 3.855 52.203 52.203 0 00-.122 3.603c0 3.184 1.012 5.762 3.008 7.663C9.984 60.049 12.592 61 15.764 61h29.372c3.172 0 5.78-.951 7.752-2.827 1.996-1.9 3.009-4.479 3.009-7.664-.001-1.23-.042-2.441-.124-3.603zm-5.35 8.677c-1.303 1.24-3.032 1.842-5.287 1.842H15.764c-2.255 0-3.985-.602-5.287-1.842-1.278-1.216-1.898-2.876-1.898-5.073 0-1.143.037-2.272.113-3.355.073-1.063.224-2.231.446-3.472.22-1.225.5-2.375.834-3.416.32-.999.756-1.987 1.297-2.94.516-.907 1.11-1.685 1.765-2.313.613-.587 1.385-1.067 2.296-1.427.842-.333 1.788-.516 2.815-.543.125.066.348.193.709.429.735.479 1.582 1.025 2.518 1.623 1.056.673 2.416 1.28 4.04 1.805 1.661.537 3.355.81 5.037.81 1.681 0 3.376-.273 5.036-.81 1.626-.525 2.985-1.132 4.042-1.806.959-.612 1.782-1.143 2.517-1.622a9.66 9.66 0 01.709-.43c1.028.028 1.974.21 2.816.544.91.36 1.682.84 2.295 1.427.656.627 1.25 1.406 1.766 2.314.54.952.977 1.94 1.297 2.938a26.79 26.79 0 01.834 3.417c.222 1.243.373 2.41.446 3.472a48.28 48.28 0 01.115 3.355c0 2.198-.622 3.857-1.899 5.073z" fill="#2499E4"/></svg><svg fill="#fff" viewBox="0 0 512 512" id="user-logout" xmlns="http://www.w3.org/2000/svg"><defs><linearGradient id="ja" x1="0%" y1="0%" x2="100%" y2="0%"><stop offset="0%" stop-color="#03b8ff"/><stop offset="100%" stop-color="#0278ff"/></linearGradient></defs><path fill="url(#ja)" d="M255.15 468.625H63.787c-11.737 0-21.262-9.526-21.262-21.262V64.638c0-11.737 9.526-21.262 21.262-21.262H255.15c11.758 0 21.262-9.504 21.262-21.262S266.908.85 255.15.85H63.787C28.619.85 0 29.47 0 64.638v382.724c0 35.168 28.619 63.787 63.787 63.787H255.15c11.758 0 21.262-9.504 21.262-21.262 0-11.758-9.504-21.262-21.262-21.262z"/><path fill="url(#ja)" d="M505.664 240.861L376.388 113.286c-8.335-8.25-21.815-8.143-30.065.213s-8.165 21.815.213 30.065l92.385 91.173H191.362c-11.758 0-21.262 9.504-21.262 21.262 0 11.758 9.504 21.263 21.262 21.263h247.559l-92.385 91.173c-8.377 8.25-8.441 21.709-.213 30.065a21.255 21.255 0 0015.139 6.336c5.401 0 10.801-2.041 14.926-6.124l129.276-127.575A21.303 21.303 0 00512 255.998c0-5.696-2.275-11.118-6.336-15.137z"/></svg><svg viewBox="0 0 24 24" id="vk" xmlns="http://www.w3.org/2000/svg"><path d="M19.915 13.028c-.388-.49-.277-.708 0-1.146.005-.005 3.208-4.431 3.538-5.932l.002-.001c.164-.547 0-.949-.793-.949h-2.624c-.668 0-.976.345-1.141.731 0 0-1.336 3.198-3.226 5.271-.61.599-.892.791-1.225.791-.164 0-.419-.192-.419-.739V5.949c0-.656-.187-.949-.74-.949H9.161c-.419 0-.668.306-.668.591 0 .622.945.765 1.043 2.515v3.797c0 .832-.151.985-.486.985-.892 0-3.057-3.211-4.34-6.886-.259-.713-.512-1.001-1.185-1.001H.9c-.749 0-.9.345-.9.731 0 .682.892 4.073 4.148 8.553C6.318 17.343 9.374 19 12.154 19c1.671 0 1.875-.368 1.875-1.001 0-2.922-.151-3.198.686-3.198.388 0 1.056.192 2.616 1.667C19.114 18.217 19.407 19 20.405 19h2.624c.748 0 1.127-.368.909-1.094-.499-1.527-3.871-4.668-4.023-4.878z"/></svg><svg viewBox="0 -77 512.002 512" id="youtube" xmlns="http://www.w3.org/2000/svg"><path d="M501.453 56.094c-5.902-21.934-23.195-39.223-45.125-45.13C416.262 0 255.996 0 255.996 0S95.734 0 55.668 10.547C34.16 16.449 16.445 34.164 10.543 56.094 0 96.156 0 179.242 0 179.242s0 83.504 10.543 123.149c5.906 21.93 23.195 39.222 45.129 45.129C96.156 358.484 256 358.484 256 358.484s160.262 0 200.328-10.546c21.934-5.903 39.223-23.196 45.129-45.125C512 262.745 512 179.663 512 179.663s.422-83.508-10.547-123.57zm0 0" fill="red"/><path d="M204.969 256l133.27-76.758-133.27-76.758zm0 0" fill="#fff"/></svg><svg viewBox="0 0 512 512" id="youtube-black" xmlns="http://www.w3.org/2000/svg"><path d="M490.24 113.92c-13.888-24.704-28.96-29.248-59.648-30.976C399.936 80.864 322.848 80 256.064 80c-66.912 0-144.032.864-174.656 2.912-30.624 1.76-45.728 6.272-59.744 31.008C7.36 138.592 0 181.088 0 255.904v.256c0 74.496 7.36 117.312 21.664 141.728 14.016 24.704 29.088 29.184 59.712 31.264C112.032 430.944 189.152 432 256.064 432c66.784 0 143.872-1.056 174.56-2.816 30.688-2.08 45.76-6.56 59.648-31.264C504.704 373.504 512 330.688 512 256.192v-.16-.096c0-74.848-7.296-117.344-21.76-142.016zM192 352V160l160 96-160 96z"/></svg><svg viewBox="0 0 512 512" id="youtube-mood" xmlns="http://www.w3.org/2000/svg"><path d="M490.24 113.92c-13.888-24.704-28.96-29.248-59.648-30.976C399.936 80.864 322.848 80 256.064 80c-66.912 0-144.032.864-174.656 2.912-30.624 1.76-45.728 6.272-59.744 31.008C7.36 138.592 0 181.088 0 255.904v.256c0 74.496 7.36 117.312 21.664 141.728 14.016 24.704 29.088 29.184 59.712 31.264C112.032 430.944 189.152 432 256.064 432c66.784 0 143.872-1.056 174.56-2.816 30.688-2.08 45.76-6.56 59.648-31.264C504.704 373.504 512 330.688 512 256.192v-.16-.096c0-74.848-7.296-117.344-21.76-142.016z" fill="#f44336"/><path fill="#fafafa" d="M192 352V160l160 96z"/></svg></svg>